<?xml version="1.0" standalone="no"?>
<!DOCTYPE svg PUBLIC "-//W3C//DTD SVG 20010904//EN"
 "http://www.w3.org/TR/2001/REC-SVG-20010904/DTD/svg10.dtd">
<svg version="1.0" xmlns="http://www.w3.org/2000/svg"
 width="909.000000pt" height="909.000000pt" viewBox="0 0 909.000000 909.000000"
 preserveAspectRatio="xMidYMid meet">
<metadata>
Created by potrace 1.14, written by Peter Selinger 2001-2017
</metadata>
<g transform="translate(0.000000,909.000000) scale(0.100000,-0.100000)"
fill="#000000" stroke="none">
<path d="M4530 8594 c-8 -1 -49 -8 -90 -14 -147 -24 -355 -104 -490 -189 -191
-120 -361 -315 -416 -476 -24 -72 -28 -99 -28 -195 -1 -81 -2 -86 -27 -102
-32 -20 -40 -49 -44 -157 -4 -101 12 -162 54 -205 37 -38 40 -76 10 -125 -26
-43 -57 -122 -64 -164 -3 -17 -8 -45 -11 -62 -32 -182 36 -359 219 -567 60
-68 57 -44 56 -348 -1 -264 -6 -396 -24 -545 -2 -16 -6 -52 -10 -80 -46 -410
-158 -841 -335 -1290 -110 -280 -150 -409 -150 -490 1 -151 199 -263 346 -194
191 90 322 418 419 1049 2 14 7 52 10 85 11 100 -5 92 173 89 350 -5 553 61
897 289 188 125 253 133 335 40 63 -72 111 -185 138 -324 10 -50 8 -225 -3
-259 -3 -11 -8 -32 -11 -47 -3 -16 -16 -62 -31 -103 -157 -460 -642 -848
-1263 -1010 -51 -14 -65 -17 -135 -30 -27 -6 -61 -12 -75 -15 -116 -24 -212
-32 -425 -39 -218 -7 -289 -15 -365 -38 -140 -44 -191 -109 -185 -240 5 -106
55 -230 243 -608 174 -347 252 -512 252 -531 0 -16 -131 0 -218 27 -128 39
-163 41 -198 11 -58 -49 -81 -194 -47 -291 64 -177 297 -267 610 -234 192 20
277 95 268 238 -4 61 -29 156 -59 225 -39 85 -69 152 -126 270 -120 251 -191
447 -205 567 l-6 54 153 -3 c237 -4 479 -12 518 -18 97 -13 238 -63 302 -105
60 -41 112 -89 105 -97 -4 -3 -45 -19 -92 -34 -195 -64 -311 -148 -362 -259
-21 -47 -24 -65 -20 -125 6 -92 34 -162 110 -276 82 -125 171 -223 424 -471
153 -149 263 -261 260 -264 -1 -1 -55 -5 -120 -9 -65 -3 -128 -8 -140 -10 -67
-13 -86 -18 -132 -32 -125 -39 -166 -114 -115 -213 30 -59 136 -178 188 -211
83 -52 205 -76 382 -73 140 1 183 9 257 45 50 24 68 39 90 77 39 66 38 173 -2
282 -85 231 -357 616 -670 948 -63 68 -72 82 -48 82 28 0 238 64 331 99 807
314 1417 1159 1497 2073 12 130 6 406 -10 488 -2 10 -7 40 -10 67 -12 80 -53
250 -85 344 -113 339 -291 627 -555 897 -205 212 -412 370 -700 537 -101 58
-226 135 -235 145 -3 3 -21 16 -40 30 -63 44 -210 185 -210 202 0 14 55 59 97
79 99 48 247 34 510 -47 248 -77 275 -83 340 -84 41 0 58 5 80 24 39 33 38
107 0 165 -126 190 -451 354 -725 365 -34 1 -65 5 -68 9 -11 10 73 58 127 72
62 17 168 20 289 9 125 -11 206 -10 234 5 62 34 40 134 -44 205 -44 37 -160
90 -245 112 -76 20 -327 26 -415 11 -146 -26 -326 -87 -455 -154 -63 -32 -68
-33 -51 -12 87 107 252 221 378 263 104 35 139 39 330 41 163 2 202 5 223 19
67 44 65 143 -4 204 -104 92 -333 132 -524 91 -262 -55 -465 -176 -704 -417
-67 -68 -113 -107 -113 -97 0 9 9 53 21 98 52 206 189 361 412 466 56 27 142
58 182 67 6 1 30 7 55 14 25 7 52 14 60 15 8 2 35 8 60 14 25 5 59 12 75 15
17 3 44 8 60 11 110 21 204 49 229 69 25 20 28 27 22 58 -3 20 -22 56 -41 82
-67 86 -188 136 -345 140 -52 2 -102 2 -110 0z m-206 -2416 c45 -10 100 -47
117 -79 19 -36 14 -102 -11 -146 -29 -52 -66 -80 -126 -93 -25 -6 -66 -22 -89
-35 -52 -31 -70 -31 -111 0 -66 50 -64 43 -62 205 l1 149 26 4 c46 8 213 5
255 -5z m616 -513 c32 -39 3 -167 -61 -265 -103 -160 -275 -266 -484 -299 -71
-11 -296 -6 -342 8 -17 5 -34 6 -38 3 -3 -3 -3 32 0 78 5 71 10 88 28 103 12
11 53 47 91 80 37 34 78 66 90 70 11 5 66 11 121 14 107 6 143 17 190 61 61
58 126 101 182 122 107 40 202 51 223 25z"/>
</g>
</svg>
